# xmcd
#
# Track frame offsets: 
#        150
#        18464
#        34396
#        51851
#        68933
#        87758
#        108942
#        125137
#        141962
#        163995
#        180747
#
# Disc length: 2621 seconds
#
# Revision: 0
# Processed by: cddbd v1.5.2PL0 Copyright (c) Steve Scherf et al.
# Submitted via: ExactAudioCopyFreeDBPlugin 1.0
#
DISCID=a00a3b0b
DTITLE=Bex marshall - The House of Mercy
DYEAR=1900
DGENRE=Blues
TTITLE0=The House of Mercy
TTITLE1=love
TTITLE2=Bite Me
TTITLE3=Gone Fishin
TTITLE4=Rent My Room
TTITLE5=Rattlesnake
TTITLE6=Tough Times
TTITLE7=Big Man
TTITLE8=Bourbon Street
TTITLE9=Barry's Song
TTITLE10=Guilty
EXTD=
EXTT0=
EXTT1=
EXTT2=
EXTT3=
EXTT4=
EXTT5=
EXTT6=
EXTT7=
EXTT8=
EXTT9=
EXTT10=
PLAYORDER=
